PathFileType	4	(X/Y/Z)	C:\Users\chris\Documents\GitHub\baseballds\vids\pitch5_Sports2D\pitch5_Sports2D_px_person00.trc
DataRate	CameraRate	NumFrames	NumMarkers	Units	OrigDataRate	OrigDataStartFrame	OrigNumFrames
30	30	13	22	m	30	37	149
Frame#	Time	Hip			RHip			RKnee			RAnkle			RBigToe			RSmallToe			RHeel			LHip			LKnee			LAnkle			LBigToe			LSmallToe			LHeel			Neck			Head			Nose			RShoulder			RElbow			RWrist			LShoulder			LElbow			LWrist		
		X1	Y1	Z1	X2	Y2	Z2	X3	Y3	Z3	X4	Y4	Z4	X5	Y5	Z5	X6	Y6	Z6	X7	Y7	Z7	X8	Y8	Z8	X9	Y9	Z9	X10	Y10	Z10	X11	Y11	Z11	X12	Y12	Z12	X13	Y13	Z13	X14	Y14	Z14	X15	Y15	Z15	X16	Y16	Z16	X17	Y17	Z17	X18	Y18	Z18	X19	Y19	Z19	X20	Y20	Z20	X21	Y21	Z21	X22	Y22	Z22
37	1.2333333333333334	740.770974517515	578.6242143994517	0.0	689.3697254918478	597.783291266618	0.0	684.8064404465367	797.0872973644204	0.0	674.6383168370545	963.6808164922362	0.0	679.7008582371152	1027.934139645242	0.0	644.543745480333	1022.8493102519254	0.0	681.0338867114694	987.5617651054404	0.0	792.6897712213897	598.3376865252828	0.0	809.9479258901904	794.4850973243938	0.0	841.8491399547784	958.6312455310477	0.0	801.7290356668609	1021.8097639876372	0.0	837.8951446142084	1023.674780561167	0.0	855.5072837634023	985.7869893087496	0.0	744.4191389273269	290.555182268544	0.0	773.3261440415424	164.51749763162354	0.0	819.3741610468969	237.2609547749738	0.0	648.5809070612634	334.1339040025407	0.0	617.5634998279688	473.8674100257717	0.0	700.9526981531748	462.1292744667909	0.0	835.3379394074866	335.300510340897	0.0	861.4097691108091	472.06157116137507	0.0	817.3522258664053	494.34730283855276	0.0
38	1.2666666666666666	742.3848930213346	579.6156639564451	0.0	690.3620822526293	598.659537615519	0.0	685.3140039923917	797.2694838009215	0.0	674.8890998424197	964.0189074023829	0.0	679.5629885409971	1028.2557923046609	0.0	644.7642692134424	1022.7076006827649	0.0	681.4947691719528	988.505911186965	0.0	793.9813388292201	598.9280581564794	0.0	810.6198607139345	795.4174816536644	0.0	842.2529997068226	958.9425090291465	0.0	801.7408247820842	1022.788876318258	0.0	837.7860110821866	1024.378885574144	0.0	855.7321525152986	986.5551493309374	0.0	745.9026617764252	290.3671957288213	0.0	774.3415001788729	163.86331410406598	0.0	820.5409379934108	237.22024588005584	0.0	650.3535418605221	334.7048113832779	0.0	618.8956508040909	474.18839769868384	0.0	703.5460915916741	463.3967989854839	0.0	835.7546508259569	336.0707098646822	0.0	862.9669731349437	472.4874776412759	0.0	816.7177527928487	492.3258341940063	0.0
39	1.3	743.6435315034229	579.8036599253393	0.0	691.2375599037575	598.8909835742013	0.0	686.0498604895187	797.703789612149	0.0	674.879010171389	964.9034558119182	0.0	680.6167379509318	1029.106552753696	0.0	645.8267504511037	1023.1709259157403	0.0	682.0399861379914	989.0016264715775	0.0	794.6592240817713	599.6921088850402	0.0	811.0228158549428	796.0195945772007	0.0	842.7835966888563	958.7617395286067	0.0	801.5725199757713	1024.6573833967695	0.0	838.5117489879628	1025.379181555327	0.0	856.2494471839187	986.0341922089775	0.0	747.08706032847	289.46875214872415	0.0	775.3909464227604	163.3126537353709	0.0	821.8377671079156	237.3103419890669	0.0	651.648344397124	334.7705684554917	0.0	620.5150985690127	474.9731847905653	0.0	706.6041830021086	463.23098615523685	0.0	836.8820476970213	336.6343939830907	0.0	865.5276478812683	474.09061429477003	0.0	814.9142859267555	492.6344576760325	0.0
40	1.3333333333333333	744.6034575319866	579.8229090399603	0.0	692.0335255445403	598.6131261096267	0.0	686.8969125177255	797.435379520474	0.0	674.6884935211202	966.1386501300675	0.0	681.5515914757518	1029.785989144056	0.0	646.928547173165	1023.6938002252302	0.0	682.3984688975602	990.1395973097482	0.0	795.3023208471911	600.2584657570042	0.0	811.4271700614702	796.0106289264876	0.0	843.4085105287547	958.2875049138579	0.0	801.6592891947344	1025.5024467999992	0.0	839.5149127316888	1025.7069669821167	0.0	856.5846589212059	984.8887589257533	0.0	748.070440431524	288.5905935271472	0.0	776.1665002722286	163.43958023676157	0.0	822.9463975912402	237.27524316531924	0.0	652.468546220456	334.41641967124224	0.0	621.6944495732679	475.2764257548349	0.0	708.2332315942616	463.3575764947723	0.0	838.5517953770247	336.8001213287357	0.0	868.450029136023	474.2418580302124	0.0	814.7998896519706	494.1793155682638	0.0
41	1.3666666666666667	745.6824972026294	580.0971044151482	0.0	692.9950281309955	598.5513946251025	0.0	687.6096957835734	796.1781454746715	0.0	674.8099610292973	967.0631717178388	0.0	681.46139094568	1029.1672801585923	0.0	647.3706726735595	1023.3505414310985	0.0	682.5940262563315	991.8629062441585	0.0	796.5534661421249	600.2435726989428	0.0	812.0548401854367	795.3213473606113	0.0	843.8492672763053	958.3852794353795	0.0	802.0241682121698	1024.754933534263	0.0	839.6455208167793	1025.4814496480033	0.0	856.3531864091725	984.4083991463369	0.0	748.9120933418336	288.5307195187819	0.0	776.6891676175815	164.10242083057454	0.0	823.8852613915772	236.55199118685135	0.0	653.3320565088371	334.1220070659089	0.0	622.1639470207745	474.99929247106536	0.0	707.9275173735299	464.8843830901694	0.0	840.1952138157327	336.9825454268424	0.0	870.4934473448839	473.0385156723903	0.0	818.048373502269	494.4695819141464	0.0
42	1.4	746.871827170711	580.2819305287436	0.0	694.1278249164409	598.4353686356833	0.0	688.1565513974278	795.4881552569011	0.0	675.6569865312558	967.388105731343	0.0	681.6342123742579	1028.8613829325657	0.0	647.7143679043014	1023.2290287920755	0.0	682.9119908803652	992.0969594066062	0.0	797.9089073420676	599.4701452915017	0.0	813.0267230399347	794.6287878819736	0.0	844.0370985998884	959.710825551698	0.0	802.681988862138	1024.3452487393515	0.0	839.5083000097746	1025.9448984377616	0.0	855.9720215026082	984.9495430843293	0.0	749.8340721478514	289.0433733819583	0.0	777.686525191738	164.397604517698	0.0	824.8592062934504	235.53680777796552	0.0	654.6029983191942	334.15622254962057	0.0	622.2367237619408	474.9169813927299	0.0	707.5689877877455	466.64394744848727	0.0	841.647701462442	337.5647492143311	0.0	871.9227944859487	472.9216736055958	0.0	822.0319120207749	493.45671218581026	0.0
43	1.4333333333333333	747.9797949713045	580.0585808332587	0.0	695.2343192253106	597.6999363184865	0.0	688.9462932660892	796.2870649153588	0.0	676.9400822480545	967.6174581590508	0.0	682.727365757857	1031.0220402267926	0.0	648.5949349040684	1025.0979708955585	0.0	683.4903381318932	990.4880978266975	0.0	798.7367630758918	598.4226389426581	0.0	814.1668542697282	794.6542463611408	0.0	844.2490205188185	961.2392347966247	0.0	803.7036690357794	1025.0889053992857	0.0	840.3285045515435	1026.9506733590265	0.0	855.9001182107693	985.5431586009119	0.0	750.8959434028714	289.4877130004494	0.0	779.694465190997	164.0506577852529	0.0	825.8109347856657	235.70594039361856	0.0	656.0697901801972	334.4104346836862	0.0	622.2728484639844	475.1132566216738	0.0	708.5887112219488	467.1464707110699	0.0	842.6049610940579	338.1023169745475	0.0	873.9688354880307	473.97496993143875	0.0	823.4087138385167	492.20654076889275	0.0
44	1.4666666666666666	749.01942450838	579.8905710458403	0.0	696.188461120325	597.0898708077498	0.0	690.2256040365166	797.6019530595609	0.0	678.0378814154324	968.4442642842589	0.0	683.2893338636399	1034.3500100499957	0.0	649.3122757753454	1028.37222846792	0.0	684.2750133336608	990.18284995736	0.0	799.6784853518335	598.0845239736184	0.0	815.1437765883004	795.1822977938791	0.0	844.687693401689	961.4823162652518	0.0	804.7002715320567	1025.308016136188	0.0	841.3020514689834	1027.0901406810665	0.0	856.0499854860167	985.6037745924306	0.0	751.8741658227935	289.8324273110844	0.0	782.0053815126287	163.8239290523235	0.0	826.7030609239497	237.32437572847888	0.0	657.335394537109	334.63807254369	0.0	622.6018731535298	475.29830927084924	0.0	709.9272205927848	466.46153548948615	0.0	842.765307171159	338.0313548460389	0.0	877.1797895426494	474.3813646471021	0.0	823.1090894020234	491.5703101970544	0.0
45	1.5	749.9650736142478	580.3058606121388	0.0	696.9802720783996	597.2055188021083	0.0	691.542318477673	798.4657845906875	0.0	678.6868558127709	970.0362394053233	0.0	682.4183516096411	1035.9943563862798	0.0	648.9492703710395	1030.8045884232604	0.0	685.2746505779137	993.120257475389	0.0	801.1548236499075	598.5145720952706	0.0	815.9032275300173	795.5093174819115	0.0	845.2662470439595	961.1545158697838	0.0	805.4571261593509	1024.5775941340835	0.0	841.318629249585	1026.640242075798	0.0	856.2489423907743	985.9296649634517	0.0	753.0468937054605	290.2923360289396	0.0	783.7395790486951	164.22765439301673	0.0	827.8148955624158	238.97250993880735	0.0	658.4685546798671	334.7205906690103	0.0	623.5758196097895	475.6557747066181	0.0	710.7436685650268	465.52361717418165	0.0	842.8378008840834	337.59232025407135	0.0	881.0030779801589	473.2683487880911	0.0	824.269550937536	491.87646579590483	0.0
46	1.5333333333333332	750.8068062867397	580.9735388135819	0.0	697.5944871622705	597.1014407781652	0.0	692.4748918993138	798.8813882320311	0.0	679.0261221733795	971.4962590013317	0.0	681.4841562945417	1035.7633470023088	0.0	648.078598538088	1031.385009232694	0.0	686.5252041561653	996.160654395035	0.0	802.318263819503	598.5307016925826	0.0	816.6157945225369	795.4225396564864	0.0	845.9239984852743	962.0017144744874	0.0	806.2211009091287	1024.874113506885	0.0	841.439843208885	1027.2233404315386	0.0	856.9498211854325	987.18151283293	0.0	754.8183823517065	290.7308354789438	0.0	785.0502033968444	164.69657826837852	0.0	829.2213394839143	239.52665467288602	0.0	659.7201308699716	335.02352536762703	0.0	625.0844010570781	476.0638243631134	0.0	712.3927418627054	464.92718036222067	0.0	843.9024359308705	337.4197798221194	0.0	884.1219816587968	471.56956131290605	0.0	826.5084937477618	492.8755549672726	0.0
47	1.5666666666666667	751.9224945788735	581.7302952030946	0.0	698.1597298337738	596.8550937426115	0.0	693.1979953804974	799.1907110300872	0.0	679.3251913888786	971.4947963130157	0.0	682.0482397512604	1034.9455586300392	0.0	647.9275569645255	1030.4805110204452	0.0	687.6107500250969	995.6909881872377	0.0	802.872653180267	598.241686560675	0.0	817.3602403778177	795.5723199608785	0.0	846.7020432114213	963.5243203430011	0.0	806.8883884589749	1026.6150735642477	0.0	842.6130400726493	1028.6683553613864	0.0	858.4428928604566	988.2245998726962	0.0	756.7273940883763	291.04721477716987	0.0	786.2853371300134	164.90843370912253	0.0	830.4360318433203	239.40697307138578	0.0	660.9382477078252	335.97802583285636	0.0	626.4624695831137	476.0682336071714	0.0	715.5285803107505	464.9285812140096	0.0	846.022095964129	337.842209440825	0.0	885.2093247265655	470.64566222684243	0.0	827.6589277380468	494.690773421367	0.0
48	1.6	753.4188348887328	583.1919061407332	0.0	698.9970194428425	598.4907226894002	0.0	693.8079091926143	799.6925900214416	0.0	679.8295702520336	970.3425010825516	0.0	683.4547597514619	1033.7975471464354	0.0	648.751662643935	1028.7842701146317	0.0	687.9692340314771	993.7308919913029	0.0	803.5519308909176	599.5602267570296	0.0	818.2186455525879	796.5176140240372	0.0	847.5920400750304	963.9187480973509	0.0	807.0236478043213	1027.8655198048189	0.0	843.5143771180944	1029.3924440761632	0.0	859.7800385505375	987.8160462436416	0.0	758.0254451201996	291.5229300899488	0.0	787.0921005179773	165.5291864297784	0.0	831.0828276237651	239.62222969846033	0.0	661.9670574342088	337.17420673634706	0.0	627.2831229594047	475.92854145167655	0.0	717.6519280251573	465.64165551760743	0.0	848.2783616559673	338.75160666203544	0.0	884.0228302396811	470.61019972584614	0.0	828.7842593290623	497.11082440748885	0.0
49	1.6333333333333333	754.5301902581223	585.1307399359466	0.0	700.3056098129964	602.0038742884284	0.0	694.0509979080723	800.499063263395	0.0	680.5917950165475	969.8529921821581	0.0	684.2016414923496	1032.3981270990057	0.0	650.1299883042803	1027.2995947711377	0.0	687.8785848932071	993.9702393354235	0.0	804.3874268259613	602.4874606418805	0.0	819.1988125331092	797.6306966729221	0.0	848.4664042777039	963.1740502515013	0.0	806.777951794638	1027.7931288407303	0.0	843.1662015993948	1029.0992960633753	0.0	860.1407974976125	986.8948169134269	0.0	758.5220426190378	292.29163041072087	0.0	787.1386836523801	166.6548273992677	0.0	831.2247548941135	240.10078261538465	0.0	662.9725650629522	337.95134836957754	0.0	627.8323189855731	476.2174110858439	0.0	716.4227916105143	466.71105819153183	0.0	849.6410865166126	339.8030532043728	0.0	881.9632267426751	471.2294373527929	0.0	831.7581423496754	498.97382032634295	0.0
